PathFileType	4	(X/Y/Z)	40_1_30_p1_0-360.trc
DataRate	CameraRate	NumFrames	NumMarkers	Units	OrigDataRate	OrigDataStartFrame	OrigNumFrames
60.0	60.0	7	27	m	60.0	225	361
Frame#	Time	RHip			RKnee			RAnkle			RBigToe			RSmallToe			RHeel			LHip			LKnee			LAnkle			LBigToe			LSmallToe			LHeel			Neck			Head			Nose			RShoulder			RElbow			RWrist			RThumb			RIndex			RPinky			LShoulder			LElbow			LWrist			LThumb			LIndex			LPinky			
		X1	Y1	Z1	X2	Y2	Z2	X3	Y3	Z3	X4	Y4	Z4	X5	Y5	Z5	X6	Y6	Z6	X7	Y7	Z7	X8	Y8	Z8	X9	Y9	Z9	X10	Y10	Z10	X11	Y11	Z11	X12	Y12	Z12	X13	Y13	Z13	X14	Y14	Z14	X15	Y15	Z15	X16	Y16	Z16	X17	Y17	Z17	X18	Y18	Z18	X19	Y19	Z19	X20	Y20	Z20	X21	Y21	Z21	X22	Y22	Z22	X23	Y23	Z23	X24	Y24	Z24	X25	Y25	Z25	X26	Y26	Z26	X27	Y27	Z27	
225	3.75	0.30784611747137325	0.6203916125236482	0.836204137989486	0.3028745708897739	0.672631724619918	1.2785805996619284	0.2995551912451565	0.7999893409512553	1.6612197697037203	0.3121159777223877	0.7106922717842681	1.7228986796075045	0.3689178295676979	0.7328751472923746	1.7208641287514872	0.26633171757755114	0.9114956900919065	1.7463504799701337	0.151388471243208	0.538962205158123	0.8340690988659507	0.15824847615060203	0.6275183593364325	1.2630700240506254	0.09925522516613504	0.8554469711595399	1.6949958642140615	0.14907419073411232	0.6462076054709146	1.6985647338218355	0.08297838394946123	0.7240961746350663	1.727912670009783	0.07731248607929045	0.9776232613365617	1.7679963482288432	0.1826495565935983	0.5424745596963931	0.3253660839277457	0.23196058603119019	0.4643180522683074	0.0885370726662039	0.26886403459833763	0.4605509069256571	0.24491368337234196	0.2835116930040016	0.6726319562546711	0.35096794958515487	0.3686919845669666	0.5441283207978322	0.5941858194347334	0.2729635365405444	0.4933415857641842	0.4115839972227433	0.23773312916956157	0.5126250817305276	0.32808683096683783	0.21861007297763	0.5321891222503109	0.3042313908998248	0.27005610850434225	0.484798901404261	0.34351545881472423	0.08095262822984993	0.4540069166556827	0.3886950591760924	0.1993200555945184	0.45197625122558205	0.6006580380375428	0.22246408058255399	0.4415916086864072	0.40748814643031067	0.18183253896725007	0.4729634572608195	0.35493925302808177	0.19199690626494262	0.45864920584609326	0.31883158562142094	0.2362175712976885	0.42194183571292004	0.364698188388223
226	3.7666666666666666	0.3076009456290097	0.6205077996833014	0.8325164909363718	0.3028717714334266	0.6727167472385884	1.2786117740269671	0.2995734990191269	0.7999067409031593	1.6611385149110258	0.3120128914113479	0.7104404369602024	1.722832302192581	0.36667568789202715	0.7187703381659125	1.7159507287691287	0.26278556937718706	0.9074103853548244	1.7354017378884328	0.15137602951617218	0.539095088211745	0.8341024494018243	0.15830104131217246	0.6278364444296851	1.2632096891160458	0.09926660623092308	0.8555431803387165	1.6950046269495238	0.1501485610848707	0.6600864564374842	1.7035425582598613	0.08294203957760764	0.7246002865999228	1.7282452080263027	0.07842490593340051	0.9774595915214632	1.763081801896828	0.182674016542086	0.5419846476733013	0.3219060537476561	0.22232920959981103	0.4746478688379533	0.08715214330522286	0.26885688495993015	0.46227955640649604	0.24805653145812065	0.28413211363919955	0.6586528497304953	0.35177013742810015	0.36925814556374864	0.540873277066369	0.5868200599629361	0.27293328584605914	0.4933009020828765	0.4090059681245698	0.24388973279110082	0.49616573002084996	0.31914860899389824	0.22633972437906602	0.5199844639830706	0.2973249803085521	0.2681377180777467	0.48548056335760925	0.3359880233196736	0.08067803149397998	0.45382985473264825	0.3921231556228359	0.20509791588248769	0.4394945726807142	0.6002717205166564	0.22271461456977798	0.4425743179977128	0.4085307993886684	0.18144620455891405	0.46277654866621787	0.355718289170264	0.19179669423068926	0.45863692529993627	0.31662448933558135	0.23756285726487805	0.4296686971617583	0.35848747641925227
227	3.783333333333333	0.3131801426131041	0.6062259608629261	0.8308473842586516	0.3028770216395954	0.6726770950562628	1.2785930532400627	0.299571899724812	0.7997560374397562	1.6610767410165133	0.3100184186058034	0.6968747827543011	1.7179270600010186	0.36661238321459194	0.7184986881893083	1.7158601376239078	0.26274675433418665	0.9072750333794074	1.7353097741432113	0.15179326345344274	0.5409790629393136	0.8380052006407375	0.15831063893641725	0.6277679726240397	1.263212674788628	0.0987068684001707	0.8522599874462384	1.6891850157591324	0.1438723365898396	0.674915994931589	1.7096641570218667	0.08292974211717409	0.7245926857984428	1.7281783503800456	0.0787180487928482	0.9770158605037347	1.7627669140944668	0.17118998155646356	0.5397680037138325	0.3223940258743071	0.21627812185892065	0.4874658984795026	0.08541628259787881	0.26339338284498537	0.4727144387308775	0.2435178444767751	0.2778940099358436	0.6728711799236154	0.3512096747534423	0.36887162997056655	0.5412360607040301	0.5828281284941864	0.2729891017604355	0.4934926519617427	0.413889922810163	0.23808376244162688	0.5093139509400019	0.31742452775127394	0.22904757969521042	0.53121302740903	0.30677945958016006	0.26621932765115114	0.48616222531095754	0.3284605878246229	0.0804447188776336	0.4538254555717032	0.39216241395180307	0.20468208793665707	0.4403269940763676	0.6031268589522976	0.18852833069655808	0.4902577309794291	0.40032217637542794	0.1862724184564842	0.4399458175271205	0.3623863169446446	0.18800734515600184	0.4673154390760982	0.3162150862598218	0.2149279044911441	0.4596323045547857	0.3661768613696218
228	3.8	0.3113635382237443	0.5931246135086473	0.8334290412451186	0.3029744855033362	0.6725278857550013	1.2785167449399055	0.2984077238526574	0.8015273382664423	1.665873681772133	0.31006577603265967	0.6967847993961434	1.717843063697604	0.3666379735303573	0.7187698971032326	1.7159160630598895	0.2644600453066979	0.9233731471338504	1.7509918789980012	0.1511995297290102	0.5412383894437126	0.8419840041160872	0.16217277961427495	0.6307631723985064	1.2634825756555015	0.09934932751188708	0.8553041058736047	1.6948246871799144	0.14375315799612817	0.6749987937190968	1.709631946780088	0.08279234143558362	0.7245308325435054	1.7279995748513362	0.08571295130851384	0.9596685832656711	1.7608052029160615	0.17112273858681684	0.5395859140415625	0.32225914136186734	0.2102481480940635	0.4997206129599066	0.08052199493575588	0.2635779677448158	0.4726527136848428	0.24663971208442242	0.27753961190684545	0.6719006546638865	0.35116191668790786	0.36869400467230473	0.5409106661480044	0.5752613219736451	0.26822977102510565	0.5033529260575469	0.4030738902316585	0.2337676384241512	0.4918645511651788	0.31451557901007415	0.23205946325691307	0.5088035758235315	0.3009107050138431	0.2643009372245556	0.4868438872643058	0.32093315232957226	0.0801594038968352	0.4533303823592488	0.38526788660332034	0.199150702124332	0.45164591974701646	0.6006859894774418	0.21587948943085347	0.4421743870290378	0.40518912205055085	0.1803774240427575	0.4518976300406261	0.34998018399973263	0.18607745775926368	0.4581058159633882	0.31612139747082413	0.22360284725421936	0.41069821272465934	0.361405058135092
229	3.816666666666667	0.31275482006940786	0.6066567561738268	0.8349583623173304	0.30219539517357574	0.6735006070742298	1.282903811697596	0.2984409105328363	0.80158222238203	1.6659661854299164	0.31001604585499737	0.696051955959664	1.7177360446715741	0.3665304081461848	0.7178621318391435	1.7156824803719342	0.2686962823247282	0.9273758140831138	1.7519356760242384	0.15126338270158068	0.5413341239168288	0.8421444598520518	0.16283363818432026	0.6334463716781281	1.2684191281494377	0.09933202022842569	0.8555004414897693	1.6949385753071067	0.14372977386227168	0.6750769932072747	1.7096258952211245	0.08274610728881865	0.7245767766785616	1.7279856299454688	0.08577912496676461	0.9599140130754987	1.7608307814545392	0.16931948853672862	0.5266506017327583	0.3229986066636963	0.1950062030723543	0.4960899917954862	0.08168424918575833	0.26301839443646535	0.47069051168677767	0.23918595690612876	0.2670656997592162	0.6851181801782016	0.350664871815404	0.3684925371601835	0.540927250984428	0.5751968574346005	0.2684153142280783	0.5030510757063319	0.4028138555628594	0.23437078178197904	0.47618729334828236	0.3147158756662099	0.23199892594917168	0.5086099051350172	0.30069549427991016	0.26238254679796	0.48752554921765406	0.3134057168345216	0.08007342945511439	0.45358284829106016	0.3920794157532044	0.2017910557973871	0.4402711266965063	0.6043694959715883	0.215429051836047	0.4406558405321757	0.4012339010848695	0.1809215020559269	0.46119277331924774	0.3457477300476685	0.18600190468600789	0.45764861195197465	0.3156389537577815	0.22750330624263065	0.41338786637450975	0.35844811260310844
230	3.8333333333333335	0.3092011998196225	0.6034189905121758	0.8308804779677248	0.30294919666620024	0.6726596166420608	1.27861232069064	0.2994325980161824	0.8006097750942669	1.6616273590327302	0.3080886751182603	0.6821816115476199	1.7128641698203533	0.36645745103808275	0.7176065648363085	1.7156198012141188	0.2644890345271148	0.9240250082761995	1.7509990402858873	0.15122350326649234	0.541369549886159	0.842195547829032	0.16196089230227256	0.6341622266413743	1.2729707208269914	0.0992616766560644	0.8556623139649249	1.695003238045413	0.14264987550259547	0.660901304108389	1.7046089630669738	0.08259968347747103	0.724667753842884	1.7280928949995926	0.07884925321826765	0.9776695679942458	1.7629378837590124	0.1692965592003963	0.5266557987192886	0.3267288991761003	0.19485408789773928	0.4980577381681726	0.08524513449590897	0.25927303735292495	0.4714211950328394	0.24635499987159565	0.2684323725185256	0.6702970137929355	0.35163748211548884	0.36848958198209447	0.5410424317810271	0.5751351485907071	0.2683314418216036	0.5030502800507248	0.40115302014945237	0.2166164593783845	0.5326710006279508	0.3051696293844563	0.23188150869837515	0.5091321558834536	0.3005757049609409	0.26213821689956984	0.4877589027266093	0.3098095045810864	0.07432720620999222	0.4644717927601254	0.388537946108617	0.20532615853527653	0.44135501600475924	0.6039890999814786	0.21167944629750912	0.4392513841949514	0.3984013357160899	0.17581854546181103	0.4716707531686	0.3404146187822232	0.1809624912284738	0.4694309511647492	0.3125880256912208	0.22434652016998818	0.43359351420969994	0.35200279828327974
231	3.85	0.30693297988614415	0.5908844175426008	0.8298790339513947	0.30295301464586455	0.672740166657429	1.278732217557308	0.29838793297798033	0.8018377568520879	1.6660134906210957	0.3080604374685914	0.6822283071929064	1.7127720034894478	0.36638646261212515	0.7174425815134494	1.7155390167927964	0.2644610394276455	0.9240997366527394	1.75098600903913	0.15160831273811273	0.5433794387087927	0.8460733231413686	0.16463072178560192	0.6466668086564951	1.2713617149526517	0.0993233976846361	0.8557336402499186	1.6950249169910196	0.14266177329631652	0.6611854457607235	1.7047006341072362	0.08265904937960625	0.7248879069534571	1.728195115193882	0.07894038812159579	0.9779096060030729	1.7630143573233164	0.16311472640014507	0.5388700566794707	0.32591083906948926	0.18769254037750965	0.4930328396329474	0.08595126118866207	0.25936352631565235	0.4704749279472848	0.24309520131286186	0.2579157319969017	0.6834484281151256	0.35129167261632904	0.3683954843958853	0.5413379932293175	0.575161097160132	0.26799937227646203	0.5036620346299454	0.4024203176591459	0.21184187941236662	0.5436920728894432	0.31384082580489575	0.21341258346465497	0.551227668998045	0.3032013420054546	0.25024796359286877	0.48627350932052094	0.31953317713818696	0.07042865042279293	0.462469928171697	0.3922539221042055	0.2071363481752664	0.425668253499821	0.6032849719763097	0.21163784070487357	0.4396093430621159	0.40811610579875923	0.170678141949699	0.471685632460043	0.3503898653431054	0.17995350482028155	0.4709519868322511	0.3197556846172793	0.2223088498226363	0.4259705227156635	0.3616383012086886
